<?xml version="1.0" encoding="iso-8859-1"?>
<!-- Generator: Adobe Illustrator 19.0.0, SVG Export Plug-In . SVG Version: 6.00 Build 0)  -->
<svg version="1.1" id="Capa_1" xmlns="http://www.w3.org/2000/svg" xmlns:xlink="http://www.w3.org/1999/xlink" x="0px" y="0px"
	 viewBox="0 0 384 384" style="enable-background:new 0 0 384 384;" xml:space="preserve">
<circle style="fill:#E05B49;" cx="192" cy="192" r="192"/>
<path style="opacity:0.1;enable-background:new    ;" d="M290.56,112.597l-0.8-0.8c-0.92-0.8-2.08-1.24-3.36-1.24H97.6
	c-2.88,0-5.24,2.32-5.24,5.2v138.76H82v14.36h0.32l114.988,114.988c99.057-2.696,179.343-80.373,186.166-178.348l-92.714-92.68
	L290.56,112.597z"/>
<path style="fill:#3A556A;" d="M291.62,115.753v138.76H92.38v-138.76c0-2.88,2.32-5.2,5.2-5.2h188.84
	C289.3,110.553,291.62,112.873,291.62,115.753z"/>
<rect x="82" y="254.52" style="fill:#EBF0F3;" width="220" height="14.372"/>
<g>
	<polygon style="fill:#D5D6DB;" points="301.679,268.889 82.321,268.889 97.311,273.447 286.689,273.447 	"/>
	<rect x="176.64" y="260" style="fill:#D5D6DB;" width="30.76" height="3.364"/>
</g>
<rect x="104.52" y="121.68" style="fill:#64798A;" width="174.996" height="21.128"/>
<rect x="111.216" y="127.436" style="fill:#EBF0F3;" width="109.636" height="9.604"/>
<circle style="fill:#FCD462;" cx="234.6" cy="132.24" r="4.804"/>
<circle style="fill:#44C4A1;" cx="251.708" cy="132.24" r="4.804"/>
<circle style="fill:#E56353;" cx="268.84" cy="132.24" r="4.804"/>
<rect x="104.48" y="142.812" style="fill:#FFFFFF;" width="174.996" height="98.756"/>
<path style="fill:#E1E6E9;" d="M133.221,170.834c-7.318,0-13.25,5.933-13.25,13.251c0,7.318,5.932,13.25,13.25,13.25h95.473v-26.501
	H133.221z"/>
<path style="fill:#3A556A;" d="M250.778,170.834h-22.084v26.501h22.084c7.318,0,13.251-5.932,13.251-13.25
	C264.029,176.766,258.096,170.834,250.778,170.834z"/>
<path style="fill:#EBF0F3;" d="M133.221,168.37c-7.318,0-13.25,5.933-13.25,13.251c0,7.318,5.932,13.25,13.25,13.25h95.473V168.37
	H133.221z"/>
<g>
	<path style="fill:#64798A;" d="M250.778,168.37h-22.084v26.501h22.084c7.318,0,13.251-5.932,13.251-13.25
		C264.029,174.303,258.096,168.37,250.778,168.37z"/>
	<rect x="133.4" y="173.08" style="fill:#64798A;" width="3.66" height="17.056"/>
</g>
<path style="fill:#FFFFFF;" d="M255.742,188.413l-5.434-5.438c1.587-2.739,1.237-6.302-1.106-8.644
	c-2.789-2.789-7.338-2.789-10.127,0c-2.793,2.793-2.793,7.334,0,10.127c1.352,1.356,3.15,2.099,5.063,2.099
	c1.283,0,2.502-0.361,3.582-0.991l5.432,5.436L255.742,188.413z M241.664,181.869c-0.662-0.662-1.026-1.541-1.026-2.474
	c0-0.933,0.365-1.813,1.026-2.474c0.662-0.662,1.541-1.023,2.474-1.023c0.933,0,1.813,0.361,2.474,1.023
	c0.662,0.662,1.026,1.541,1.026,2.474c0,0.933-0.365,1.813-1.026,2.474C245.29,183.192,242.988,183.192,241.664,181.869z"/>
<g>
</g>
<g>
</g>
<g>
</g>
<g>
</g>
<g>
</g>
<g>
</g>
<g>
</g>
<g>
</g>
<g>
</g>
<g>
</g>
<g>
</g>
<g>
</g>
<g>
</g>
<g>
</g>
<g>
</g>
</svg>
