<?xml version="1.0" encoding="iso-8859-1"?>
<!-- Generator: Adobe Illustrator 19.0.0, SVG Export Plug-In . SVG Version: 6.00 Build 0)  -->
<svg version="1.1" id="Capa_1" xmlns="http://www.w3.org/2000/svg" xmlns:xlink="http://www.w3.org/1999/xlink" x="0px" y="0px"
	 viewBox="0 0 409.6 409.6" style="enable-background:new 0 0 409.6 409.6;" xml:space="preserve">
<circle style="fill:#EA8953;" cx="204.8" cy="204.8" r="204.8"/>
<path style="opacity:0.1;enable-background:new    ;" d="M409.173,215.04l-91.733-91.733l-0.427-0.427l-0.427-0.427l0,0
	c-2.987-2.56-6.827-4.267-11.093-4.267H257.28c-8.96,0-16.64,7.253-16.64,16.64l0,0H92.587c-2.56,0-5.12,2.133-5.12,5.12V262.4
	c0,1.707,0.853,2.987,1.707,3.84l0,0l141.653,141.653C328.533,395.52,404.48,314.453,409.173,215.04z"/>
<path style="fill:#64798A;" d="M305.493,290.133H257.28c-8.96,0-16.64-7.253-16.64-16.64V134.827c0-8.96,7.253-16.64,16.64-16.64
	h48.213c8.96,0,16.64,7.253,16.64,16.64v138.667C322.133,282.453,314.88,290.133,305.493,290.133z"/>
<g>
	<rect x="253.87" y="260.27" style="fill:#D5D6DB;" width="55.04" height="13.653"/>
	<rect x="253.87" y="235.95" style="fill:#D5D6DB;" width="55.04" height="13.653"/>
	<rect x="253.87" y="212.05" style="fill:#D5D6DB;" width="55.04" height="13.653"/>
	<circle style="fill:#D5D6DB;" cx="281.6" cy="147.63" r="11.09"/>
</g>
<rect x="151.47" y="265.39" style="fill:#DC8744;" width="49.49" height="15.787"/>
<path style="fill:#3A556A;" d="M259.84,134.827H92.587c-2.56,0-5.12,2.133-5.12,5.12v102.827v19.2c0,2.56,2.133,5.12,5.12,5.12
	H259.84c2.56,0,5.12-2.133,5.12-5.12v-19.2V139.947C264.96,136.96,262.4,134.827,259.84,134.827z"/>
<circle style="fill:#D5D6DB;" cx="176.21" cy="255.15" r="6.827"/>
<path style="fill:#2F4859;" d="M206.933,279.893h-61.44c-6.4,0-11.093,5.12-11.093,11.093l0,0h84.053l0,0
	C218.027,285.013,213.333,279.893,206.933,279.893z"/>
<rect x="97.28" y="144.64" style="fill:#27A2DB;" width="157.87" height="98.13"/>
<g>
</g>
<g>
</g>
<g>
</g>
<g>
</g>
<g>
</g>
<g>
</g>
<g>
</g>
<g>
</g>
<g>
</g>
<g>
</g>
<g>
</g>
<g>
</g>
<g>
</g>
<g>
</g>
<g>
</g>
</svg>
